<svg width="100" height="100" viewBox="0 0 100 100" fill="none" xmlns="http://www.w3.org/2000/svg">
<circle cx="50" cy="50" r="50" fill="#F4F7FE"/>
<g clip-path="url(#clip0_101_9114)">
<path d="M64.0875 46.2434C62.7842 39.6309 56.9767 34.6667 50 34.6667C44.4608 34.6667 39.65 37.81 37.2542 42.41C31.485 43.0234 27 47.9109 27 53.8334C27 60.1775 32.1558 65.3334 38.5 65.3334H63.4167C68.7067 65.3334 73 61.04 73 55.75C73 50.69 69.0708 46.5884 64.0875 46.2434ZM63.4167 61.5H38.5C34.2642 61.5 30.8333 58.0692 30.8333 53.8334C30.8333 49.9042 33.7658 46.6267 37.6567 46.2242L39.7075 46.0134L40.6658 44.1925C42.4867 40.685 46.0517 38.5 50 38.5C55.0217 38.5 59.3533 42.065 60.3308 46.9909L60.9058 49.8659L63.8383 50.0767C66.8283 50.2684 69.1667 52.7792 69.1667 55.75C69.1667 58.9125 66.5792 61.5 63.4167 61.5ZM46.1667 54.1784L42.1608 50.1725L39.4583 52.875L46.1667 59.5834L57.6858 48.0642L54.9833 45.3617L46.1667 54.1784Z" fill="#4318FF"/>
</g>
<defs>
<clipPath id="clip0_101_9114">
<rect width="46" height="46" fill="white" transform="translate(27 27)"/>
</clipPath>
</defs>
</svg>
