<svg width="24" height="24" viewBox="0 0 24 24" fill="none" xmlns="http://www.w3.org/2000/svg">
<path d="M5.46683 8.73334H5.70016C6.5985 8.73334 7.3335 9.46834 7.3335 10.3667V18.5333C7.3335 19.4317 6.5985 20.1667 5.70016 20.1667H5.46683C4.5685 20.1667 3.8335 19.4317 3.8335 18.5333V10.3667C3.8335 9.46834 4.5685 8.73334 5.46683 8.73334V8.73334ZM12.0002 3.83334C12.8985 3.83334 13.6335 4.56834 13.6335 5.46668V18.5333C13.6335 19.4317 12.8985 20.1667 12.0002 20.1667C11.1018 20.1667 10.3668 19.4317 10.3668 18.5333V5.46668C10.3668 4.56834 11.1018 3.83334 12.0002 3.83334ZM18.5335 13.1667C19.4318 13.1667 20.1668 13.9017 20.1668 14.8V18.5333C20.1668 19.4317 19.4318 20.1667 18.5335 20.1667C17.6352 20.1667 16.9002 19.4317 16.9002 18.5333V14.8C16.9002 13.9017 17.6352 13.1667 18.5335 13.1667V13.1667Z" fill="white"/>
</svg>
